<?xml version="1.0" standalone="no"?>
<!DOCTYPE svg PUBLIC "-//W3C//DTD SVG 20010904//EN"
 "http://www.w3.org/TR/2001/REC-SVG-20010904/DTD/svg10.dtd">
<svg version="1.0" xmlns="http://www.w3.org/2000/svg"
 width="537.000000pt" height="552.000000pt" viewBox="0 0 437.000000 352.000000"
 preserveAspectRatio="xMidYMid meet">

<g transform="translate(0.000000,352.000000) scale(0.100000,-0.100000)"
fill="#000000" stroke="none">
<path d="M2320 2271 c-563 -123 -861 -744 -603 -1256 20 -38 50 -90 67 -114
l31 -43 5 343 5 344 31 86 c153 428 648 597 1026 350 128 -83 221 -205 275
-356 25 -72 28 -93 28 -215 0 -126 -2 -141 -31 -221 -39 -109 -106 -211 -190
-287 -208 -192 -527 -234 -771 -102 l-53 28 0 -112 0 -111 58 -22 c112 -43
144 -47 307 -48 174 0 233 12 372 75 233 105 420 334 484 590 27 107 29 290 5
398 -70 315 -314 573 -626 662 -109 31 -306 36 -420 11z"/>
<path d="M2409 1767 c-107 -30 -211 -124 -248 -223 -29 -75 -29 -193 0 -269
29 -78 111 -164 191 -201 55 -25 75 -29 153 -29 118 0 191 31 269 116 70 76
98 147 98 249 0 103 -28 174 -98 249 -93 100 -239 144 -365 108z"/>
</g>
</svg>
